<?xml version="1.0" standalone="no"?>
<!DOCTYPE svg PUBLIC "-//W3C//DTD SVG 20010904//EN"
 "http://www.w3.org/TR/2001/REC-SVG-20010904/DTD/svg10.dtd">
<svg version="1.0" xmlns="http://www.w3.org/2000/svg"
 width="700.000000pt" height="700.000000pt" viewBox="0 0 700.000000 700.000000"
 preserveAspectRatio="xMidYMid meet">
<metadata>
Created by potrace 1.14, written by Peter Selinger 2001-2017
</metadata>
<g transform="translate(0.000000,700.000000) scale(0.100000,-0.100000)"
fill="#000000" stroke="none">
<path d="M3289 6766 c-2 -2 -47 -7 -99 -10 -53 -4 -105 -8 -115 -10 -11 -2
-47 -6 -80 -10 -52 -6 -94 -13 -255 -42 -148 -28 -512 -136 -645 -194 -27 -11
-68 -29 -90 -38 -89 -37 -317 -155 -419 -217 -247 -149 -438 -298 -642 -500
-288 -286 -486 -564 -648 -907 -80 -169 -180 -449 -200 -558 -2 -14 -11 -56
-20 -95 -24 -100 -32 -152 -55 -365 -9 -77 -6 -477 3 -540 3 -19 8 -55 10 -80
51 -449 238 -928 524 -1344 l61 -88 -4 -77 c-3 -42 -7 -125 -10 -186 -2 -60
-7 -155 -10 -210 -2 -55 -7 -156 -10 -225 -3 -69 -8 -168 -10 -220 -3 -52 -7
-144 -10 -205 -3 -60 -7 -171 -10 -245 -4 -74 -8 -152 -10 -172 -1 -21 1 -38
6 -38 4 0 61 27 126 61 65 34 197 102 293 151 96 50 236 122 310 161 74 38
211 109 303 157 l169 87 107 -53 c217 -107 464 -197 711 -259 74 -19 146 -36
160 -38 14 -3 63 -12 110 -20 228 -42 354 -52 660 -52 293 0 395 7 626 45 38
7 83 14 99 17 164 25 528 136 729 222 l118 50 62 -24 c66 -26 202 -64 241 -67
20 -2 25 -8 26 -33 0 -16 2 -156 2 -310 l2 -280 188 -3 c146 -2 187 0 188 10
0 7 1 147 1 310 l1 298 36 10 c20 5 44 10 53 10 33 0 225 68 308 109 178 89
364 241 483 396 133 174 234 421 252 622 11 118 11 133 1 134 -34 2 -308 0
-311 -3 -1 -1 -5 -34 -9 -73 -20 -228 -109 -423 -264 -582 -186 -190 -437
-300 -708 -308 -150 -5 -159 -1 -84 46 59 38 231 163 280 205 319 271 558 547
747 864 51 87 171 321 191 375 6 17 27 73 47 125 31 84 89 270 100 325 3 11 8
34 12 50 4 17 7 32 8 35 22 110 23 113 30 170 4 29 8 62 10 72 20 103 27 476
12 648 -5 52 -10 97 -12 100 -1 3 -6 31 -9 64 -22 184 -111 502 -204 721 -43
102 -175 350 -236 445 -63 97 -186 270 -212 296 -6 7 -39 46 -75 88 -90 108
-296 307 -420 405 -391 312 -826 533 -1319 670 -100 27 -195 49 -295 66 -16 3
-41 8 -55 10 -14 3 -35 7 -46 9 -20 4 -157 21 -254 32 -58 6 -545 15 -551 10z"/>
</g>
</svg>
